solid SPACE=RAS
   facet normal 0.000000e+00 -0.000000e+00 1.000000e+00
      outer loop
         vertex 1.380900e+02 -1.191000e+01 0.000000e+00
         vertex 1.380900e+02 5.809000e+01 0.000000e+00
         vertex -1.191000e+01 -1.191000e+01 0.000000e+00
      endloop
   endfacet
   facet normal 0.000000e+00 0.000000e+00 1.000000e+00
      outer loop
         vertex -1.191000e+01 -1.191000e+01 0.000000e+00
         vertex 1.380900e+02 5.809000e+01 0.000000e+00
         vertex 5.809000e+01 1.380900e+02 0.000000e+00
      endloop
   endfacet
   facet normal 0.000000e+00 0.000000e+00 1.000000e+00
      outer loop
         vertex -1.191000e+01 -1.191000e+01 0.000000e+00
         vertex 5.809000e+01 1.380900e+02 0.000000e+00
         vertex -1.191000e+01 1.380900e+02 0.000000e+00
      endloop
   endfacet
   facet normal -1.000000e+00 0.000000e+00 0.000000e+00
      outer loop
         vertex -1.191000e+01 1.380900e+02 -2.500000e+01
         vertex -1.191000e+01 -1.191000e+01 -2.500000e+01
         vertex -1.191000e+01 1.380900e+02 0.000000e+00
      endloop
   endfacet
   facet normal -1.000000e+00 -0.000000e+00 0.000000e+00
      outer loop
         vertex -1.191000e+01 1.380900e+02 0.000000e+00
         vertex -1.191000e+01 -1.191000e+01 -2.500000e+01
         vertex -1.191000e+01 -1.191000e+01 0.000000e+00
      endloop
   endfacet
   facet normal -0.000000e+00 1.000000e+00 0.000000e+00
      outer loop
         vertex 7.441993e+01 1.380900e+02 5.000000e+01
         vertex 1.380900e+02 1.380900e+02 5.000000e+01
         vertex 5.809000e+01 1.380900e+02 3.000000e+01
      endloop
   endfacet
   facet normal -0.000000e+00 1.000000e+00 0.000000e+00
      outer loop
         vertex 5.809000e+01 1.380900e+02 3.000000e+01
         vertex 1.380900e+02 1.380900e+02 5.000000e+01
         vertex 1.380900e+02 1.380900e+02 -2.500000e+01
      endloop
   endfacet
   facet normal 0.000000e+00 1.000000e+00 0.000000e+00
      outer loop
         vertex 5.809000e+01 1.380900e+02 3.000000e+01
         vertex 1.380900e+02 1.380900e+02 -2.500000e+01
         vertex 5.809000e+01 1.380900e+02 0.000000e+00
      endloop
   endfacet
   facet normal 0.000000e+00 1.000000e+00 0.000000e+00
      outer loop
         vertex 5.809000e+01 1.380900e+02 0.000000e+00
         vertex 1.380900e+02 1.380900e+02 -2.500000e+01
         vertex -1.191000e+01 1.380900e+02 -2.500000e+01
      endloop
   endfacet
   facet normal 0.000000e+00 1.000000e+00 0.000000e+00
      outer loop
         vertex 5.809000e+01 1.380900e+02 0.000000e+00
         vertex -1.191000e+01 1.380900e+02 -2.500000e+01
         vertex -1.191000e+01 1.380900e+02 0.000000e+00
      endloop
   endfacet
   facet normal 1.000000e+00 0.000000e+00 -0.000000e+00
      outer loop
         vertex 1.380900e+02 1.380900e+02 -2.500000e+01
         vertex 1.380900e+02 1.380900e+02 5.000000e+01
         vertex 1.380900e+02 7.441993e+01 5.000000e+01
      endloop
   endfacet
   facet normal 1.000000e+00 -0.000000e+00 0.000000e+00
      outer loop
         vertex 1.380900e+02 -1.191000e+01 0.000000e+00
         vertex 1.380900e+02 -1.191000e+01 -2.500000e+01
         vertex 1.380900e+02 5.809000e+01 0.000000e+00
      endloop
   endfacet
   facet normal 1.000000e+00 0.000000e+00 0.000000e+00
      outer loop
         vertex 1.380900e+02 5.809000e+01 0.000000e+00
         vertex 1.380900e+02 -1.191000e+01 -2.500000e+01
         vertex 1.380900e+02 1.380900e+02 -2.500000e+01
      endloop
   endfacet
   facet normal 1.000000e+00 -0.000000e+00 0.000000e+00
      outer loop
         vertex 1.380900e+02 5.809000e+01 0.000000e+00
         vertex 1.380900e+02 1.380900e+02 -2.500000e+01
         vertex 1.380900e+02 5.809000e+01 3.000000e+01
      endloop
   endfacet
   facet normal 1.000000e+00 -0.000000e+00 0.000000e+00
      outer loop
         vertex 1.380900e+02 5.809000e+01 3.000000e+01
         vertex 1.380900e+02 1.380900e+02 -2.500000e+01
         vertex 1.380900e+02 7.441993e+01 5.000000e+01
      endloop
   endfacet
   facet normal 0.000000e+00 -1.000000e+00 0.000000e+00
      outer loop
         vertex -1.191000e+01 -1.191000e+01 -2.500000e+01
         vertex 1.380900e+02 -1.191000e+01 -2.500000e+01
         vertex -1.191000e+01 -1.191000e+01 0.000000e+00
      endloop
   endfacet
   facet normal 0.000000e+00 -1.000000e+00 0.000000e+00
      outer loop
         vertex -1.191000e+01 -1.191000e+01 0.000000e+00
         vertex 1.380900e+02 -1.191000e+01 -2.500000e+01
         vertex 1.380900e+02 -1.191000e+01 0.000000e+00
      endloop
   endfacet
   facet normal -0.000000e+00 -0.000000e+00 -1.000000e+00
      outer loop
         vertex 1.380900e+02 1.380900e+02 -2.500000e+01
         vertex 1.380900e+02 -1.191000e+01 -2.500000e+01
         vertex -1.191000e+01 1.380900e+02 -2.500000e+01
      endloop
   endfacet
   facet normal 0.000000e+00 0.000000e+00 -1.000000e+00
      outer loop
         vertex -1.191000e+01 1.380900e+02 -2.500000e+01
         vertex 1.380900e+02 -1.191000e+01 -2.500000e+01
         vertex -1.191000e+01 -1.191000e+01 -2.500000e+01
      endloop
   endfacet
   facet normal -7.071068e-01 -7.071068e-01 -0.000000e+00
      outer loop
         vertex 5.809000e+01 1.380900e+02 3.000000e+01
         vertex 5.809000e+01 1.380900e+02 0.000000e+00
         vertex 1.380900e+02 5.809000e+01 3.000000e+01
      endloop
   endfacet
   facet normal -7.071068e-01 -7.071068e-01 -0.000000e+00
      outer loop
         vertex 1.380900e+02 5.809000e+01 3.000000e+01
         vertex 5.809000e+01 1.380900e+02 0.000000e+00
         vertex 1.380900e+02 5.809000e+01 0.000000e+00
      endloop
   endfacet
   facet normal -0.000000e+00 0.000000e+00 1.000000e+00
      outer loop
         vertex 7.441993e+01 1.380900e+02 5.000000e+01
         vertex 1.380900e+02 7.441993e+01 5.000000e+01
         vertex 1.380900e+02 1.380900e+02 5.000000e+01
      endloop
   endfacet
   facet normal -6.123725e-01 -6.123725e-01 4.999999e-01
      outer loop
         vertex 1.380900e+02 5.809000e+01 3.000000e+01
         vertex 1.380900e+02 7.441993e+01 5.000000e+01
         vertex 5.809000e+01 1.380900e+02 3.000000e+01
      endloop
   endfacet
   facet normal -6.123725e-01 -6.123725e-01 4.999999e-01
      outer loop
         vertex 5.809000e+01 1.380900e+02 3.000000e+01
         vertex 1.380900e+02 7.441993e+01 5.000000e+01
         vertex 7.441993e+01 1.380900e+02 5.000000e+01
      endloop
   endfacet
endsolid
